# File created by Blade
# Date/Time:  Wed Jan 21 19:14:05 2015
#---------------------------------------------------------
:version 1.10
:name HOM
:units
  mass 1.0
  length 1.000000
  angle deg
:documentation
     Acclaim Skeleton File
:root
   axis xyz
   order TX TY TZ RX RY RZ
   position 0.000000 0.000000 0.000000
   orientation 0 0 0
:bonedata
   begin
      id 1
      name RightUpLeg_dum
      direction -1.000000 0.000000 0.000000
      length 3.693983
      axis 0.0 0.0 0.0 xyz
   end
   begin
      id 2
      name LeftUpLeg_dum
      direction 1.000000 0.000000 0.000000
      length 3.693983
      axis 0.0 0.0 0.0 xyz
   end
   begin
      id 3
      name Spine_dum
      direction 0.000000 1.000000 0.000000
      length 2.392956
      axis 0.0 0.0 0.0 xyz
   end
   begin
      id 4
      name RightUpLeg
      direction 0.000000 -1.000000 0.000000
      length 15.795667
      axis 0.0 0.0 0.0 xyz
      dof rx ry rz
   end
   begin
      id 5
      name RightLeg
      direction 0.000000 -1.000000 0.000000
      length 14.766989
      axis 0.0 0.0 0.0 xyz
      dof rx ry rz
   end
   begin
      id 6
      name RightFoot
      direction 0.000000 -0.258819 0.965926
      length 4.962790
      axis 15.0 0.0 0.0 xyz
      dof rx ry rz
   end
   begin
      id 7
      name RightToeBase
      direction 0.000000 0.000000 1.000000
      length 2.952750
      axis 0.0 0.0 0.0 xyz
      dof rx ry rz
   end
   begin
      id 8
      name LeftUpLeg
      direction 0.000000 -1.000000 0.000000
      length 15.795667
      axis 0.0 0.0 0.0 xyz
      dof rx ry rz
   end
   begin
      id 9
      name LeftLeg
      direction 0.000000 -1.000000 0.000000
      length 14.766989
      axis 0.0 0.0 0.0 xyz
      dof rx ry rz
   end
   begin
      id 10
      name LeftFoot
      direction 0.000000 -0.258819 0.965926
      length 4.962790
      axis 15.0 0.0 0.0 xyz
      dof rx ry rz
   end
   begin
      id 11
      name LeftToeBase
      direction 0.000000 0.000000 1.000000
      length 2.952750
      axis 0.0 0.0 0.0 xyz
      dof rx ry rz
   end
   begin
      id 12
      name Spine
      direction 0.000000 1.000000 0.000000
      length 0.000000
      axis 0.0 0.0 0.0 xyz
      dof rx ry rz
   end
   begin
      id 13
      name Spine_dum1
      direction 0.000000 1.000000 0.000000
      length 13.207411
      axis 0.0 0.0 0.0 xyz
   end
   begin
      id 14
      name Spine_dum2
      direction 0.000000 1.000000 0.000000
      length 13.207411
      axis 0.0 0.0 0.0 xyz
   end
   begin
      id 15
      name Spine_dum3
      direction 0.000000 1.000000 0.000000
      length 19.250100
      axis 0.0 0.0 0.0 xyz
   end
   begin
      id 16
      name RightShoulder
      direction -1.000000 0.000000 0.000000
      length 8.140465
      axis 0.0 0.0 90.0 xyz
      dof rx ry rz
   end
   begin
      id 17
      name RightArm
      direction -1.000000 0.000000 0.000000
      length 10.649840
      axis 0.0 0.0 90.0 xyz
      dof rx ry rz
   end
   begin
      id 18
      name RightForeArm
      direction -1.000000 0.000000 0.000000
      length 8.304624
      axis 0.0 0.0 90.0 xyz
      dof ry rz rx
   end
   begin
      id 19
      name RightHand
      direction -1.000000 0.000000 0.000000
      length 0.000000
      axis 0.0 0.0 90.0 xyz
      dof rx ry rz
   end
   begin
      id 20
      name RightHand_dum1
      direction -1.000000 0.000000 0.000000
      length 3.937000
      axis 0.0 0.0 90.0 xyz
   end
   begin
      id 21
      name RightHand_dum2
      direction 0.000000 0.000000 0.000000
      length 0.000000
      axis 0.0 0.0 90.0 xyz
   end
   begin
      id 22
      name RightHandThumb1
      direction 0.000000 0.000000 1.000000
      length 3.937000
      axis 0.0 0.0 90.0 xyz
      dof rx rz ry
   end
   begin
      id 23
      name LeftShoulder
      direction 1.000000 0.000000 0.000000
      length 8.140465
      axis 0.0 0.0 -90.0 xyz
      dof rx ry rz
   end
   begin
      id 24
      name LeftArm
      direction 1.000000 0.000000 0.000000
      length 10.649840
      axis 0.0 0.0 -90.0 xyz
      dof rx ry rz
   end
   begin
      id 25
      name LeftForeArm
      direction 1.000000 0.000000 0.000000
      length 8.304624
      axis 0.0 0.0 -90.0 xyz
      dof ry rz rx
   end
   begin
      id 26
      name LeftHand
      direction 1.000000 0.000000 0.000000
      length 0.000000
      axis 0.0 0.0 -90.0 xyz
      dof rx ry rz
   end
   begin
      id 27
      name LeftHand_dum1
      direction 1.000000 0.000000 0.000000
      length 3.937000
      axis 0.0 0.0 -90.0 xyz
   end
   begin
      id 28
      name LeftHand_dum2
      direction 0.000000 0.000000 0.000000
      length 0.000000
      axis 0.0 0.0 -90.0 xyz
   end
   begin
      id 29
      name LeftHandThumb1
      direction 0.000000 0.000000 1.000000
      length 3.937000
      axis 0.0 0.0 -90.0 xyz
      dof rx rz ry
   end
   begin
      id 30
      name Head
      direction 0.000000 1.000000 0.000000
      length 4.527550
      axis 0.0 0.0 0.0 xyz
      dof rx ry rz
   end
:hierarchy
   begin
      root RightUpLeg_dum LeftUpLeg_dum Spine_dum
      RightUpLeg_dum RightUpLeg
      LeftUpLeg_dum LeftUpLeg
      Spine_dum Spine
      RightUpLeg RightLeg
      RightLeg RightFoot
      RightFoot RightToeBase
      LeftUpLeg LeftLeg
      LeftLeg LeftFoot
      LeftFoot LeftToeBase
      Spine Spine_dum1 Spine_dum2 Spine_dum3
      Spine_dum1 RightShoulder
      Spine_dum2 LeftShoulder
      Spine_dum3 Head
      RightShoulder RightArm
      RightArm RightForeArm
      RightForeArm RightHand
      RightHand RightHand_dum1 RightHand_dum2
      RightHand_dum2 RightHandThumb1
      LeftShoulder LeftArm
      LeftArm LeftForeArm
      LeftForeArm LeftHand
      LeftHand LeftHand_dum1 LeftHand_dum2
      LeftHand_dum2 LeftHandThumb1
   end

# File created by Blade
# Date/Time:  Wed Jan 21 19:13:57 2015
# Frame Rate: 120.000 fps
#------------------------------------------------------
:FULLY-SPECIFIED
:DEGREES
37
root -6.580890 32.721736 -4.892474 47.864115 11.386000 1.775823
RightUpLeg -38.482134 -13.774227 9.782966
RightLeg -6.941993 -0.000000 0.000000
RightFoot -8.728653 -4.304355 20.790197
RightToeBase 17.481043 -0.000000 -0.000000
LeftUpLeg -42.720198 8.543648 -10.283157
LeftLeg 0.590197 -0.000000 -0.000000
LeftFoot -12.808153 9.874314 -4.969044
LeftToeBase 7.464569 -0.000000 -0.000000
Spine -48.943252 1.852356 -3.861602
RightShoulder -16.934830 15.701341 -42.045868
RightArm 0.352040 -13.748469 50.257519
RightForeArm 6.791034 -0.000000 -6.648650
RightHand 8.952829 -0.000000 6.034644
RightHandThumb1 -24.326973 -0.000000 -32.862282
LeftShoulder -12.804705 3.424214 39.259630
LeftArm 22.507807 -12.869269 -40.988502
LeftForeArm 13.243578 -0.000000 -3.467600
LeftHand -20.663808 -0.000000 -2.568714
LeftHandThumb1 -26.253704 0.000000 33.147579
Head 8.598679 1.722484 2.321137
38
root -6.550782 32.720001 -4.867498 47.933639 11.884567 1.806947
RightUpLeg -38.406349 -13.912125 9.862852
RightLeg -7.006573 -0.000000 0.000000
RightFoot -8.804732 -4.573784 20.885602
RightToeBase 17.335597 -0.000000 -0.000000
LeftUpLeg -42.764524 8.622236 -10.406846
LeftLeg 0.584972 -0.000000 -0.000000
LeftFoot -12.901590 9.959284 -5.075927
LeftToeBase 7.530413 -0.000000 -0.000000
Spine -48.986510 1.874270 -3.912112
RightShoulder -16.927039 15.547151 -41.856742
RightArm 0.240322 -13.605405 50.502298
RightForeArm 6.687253 -0.000000 -6.713557
RightHand 8.975271 0.000000 6.231532
RightHandThumb1 -24.326973 -0.000000 -32.862282
LeftShoulder -12.748316 3.440788 39.175617
LeftArm 22.766004 -12.889117 -41.185876
LeftForeArm 13.420392 0.000000 -3.319522
LeftHand -20.481418 -0.000000 -2.437446
LeftHandThumb1 -26.253704 0.000000 33.147579
Head 8.621632 1.566899 2.317612
39
root -6.521445 32.719885 -4.844345 48.029321 12.324874 1.819100
RightUpLeg -38.382333 -13.988460 9.927714
RightLeg -7.035735 -0.000000 0.000000
RightFoot -8.875243 -4.861785 20.910745
RightToeBase 17.171429 -0.000000 -0.000000
LeftUpLeg -42.814702 8.654020 -10.476613
LeftLeg 0.537005 -0.000000 -0.000000
LeftFoot -12.864676 10.204532 -4.968532
LeftToeBase 7.683060 -0.000000 -0.000000
Spine -49.051106 1.943398 -3.997230
RightShoulder -16.946624 15.427792 -41.736060
RightArm 0.115710 -13.595151 50.839427
RightForeArm 6.708563 -0.000000 -6.801845
RightHand 8.569464 -0.000000 6.695546
RightHandThumb1 -24.326973 -0.000000 -32.862282
LeftShoulder -12.676660 3.422001 39.084879
LeftArm 22.984401 -12.593950 -41.245483
LeftForeArm 13.348197 -0.000000 -3.226328
LeftHand -20.361013 -0.000000 -2.230127
LeftHandThumb1 -26.253704 0.000000 33.147579
Head 8.647606 1.395520 2.250141
40
root -6.488903 32.718981 -4.817073 48.092832 12.816035 1.834833
RightUpLeg -38.336605 -14.194402 10.094847
RightLeg -7.060571 -0.000000 0.000000
RightFoot -8.923759 -5.052245 21.036938
RightToeBase 16.956778 -0.000000 -0.000000
LeftUpLeg -42.863685 8.808148 -10.653805
LeftLeg 0.525772 -0.000000 -0.000000
LeftFoot -12.818239 10.208459 -5.000356
LeftToeBase 7.681449 -0.000000 -0.000000
Spine -49.090701 1.949722 -4.013301
RightShoulder -16.890578 15.477066 -41.593333
RightArm -0.203852 -13.632021 51.133317
RightForeArm 6.653706 0.000000 -6.805590
RightHand 8.811629 -0.000000 6.409114
RightHandThumb1 -24.326973 -0.000000 -32.862282
LeftShoulder -12.660197 3.414749 39.013932
LeftArm 23.196247 -12.351247 -41.370578
LeftForeArm 13.365495 0.000000 -3.050912
LeftHand -20.208496 -0.000000 -1.974189
LeftHandThumb1 -26.253704 0.000000 33.147579
Head 8.693310 1.341495 2.263855
41
root -6.459217 32.718989 -4.789207 48.165048 13.286106 1.828468
RightUpLeg -38.302711 -14.353100 10.250696
RightLeg -7.079964 -0.000000 0.000000
RightFoot -8.980974 -5.243196 21.042885
RightToeBase 16.877469 -0.000000 -0.000000
LeftUpLeg -42.917403 8.937617 -10.771720
LeftLeg 0.486058 -0.000000 -0.000000
LeftFoot -12.675080 10.274307 -4.975797
LeftToeBase 7.590270 -0.000000 -0.000000
Spine -49.150775 1.974422 -4.039118
RightShoulder -16.851853 15.368514 -41.447762
RightArm -0.380210 -13.583839 51.481824
RightForeArm 6.860224 -0.000000 -6.790028
RightHand 8.603098 -0.000000 6.727080
RightHandThumb1 -24.326973 -0.000000 -32.862282
LeftShoulder -12.640068 3.448332 38.925442
LeftArm 23.526147 -12.071459 -41.438101
LeftForeArm 13.420124 -0.000000 -3.095938
LeftHand -20.025615 -0.000000 -1.843654
LeftHandThumb1 -26.253704 0.000000 33.147579
Head 8.750211 1.272727 2.280520
42
root -6.427819 32.718431 -4.762530 48.216303 13.743981 1.821067
RightUpLeg -38.242165 -14.482369 10.375598
RightLeg -7.097709 -0.000000 0.000000
RightFoot -9.043948 -5.456334 21.195083
RightToeBase 16.673086 -0.000000 -0.000000
LeftUpLeg -42.958689 9.050033 -10.879136
LeftLeg 0.441300 -0.000000 -0.000000
LeftFoot -12.435658 10.371185 -4.986055
LeftToeBase 7.753535 -0.000000 -0.000000
Spine -49.187723 2.060398 -4.118144
RightShoulder -16.856035 15.234084 -41.317108
RightArm -0.563937 -13.489375 51.820375
RightForeArm 6.710705 -0.000000 -6.809579
RightHand 8.720883 -0.000000 6.435634
RightHandThumb1 -24.326973 -0.000000 -32.862282
LeftShoulder -12.564611 3.441240 38.827214
LeftArm 23.799861 -11.618019 -41.432103
LeftForeArm 13.129712 -0.000000 -3.046948
LeftHand -19.840360 -0.000000 -1.810914
LeftHandThumb1 -26.253704 0.000000 33.147579
Head 8.797789 1.156862 2.268239
43
root -6.393608 32.717093 -4.734506 48.279917 14.235941 1.807873
RightUpLeg -38.188092 -14.672073 10.560154
RightLeg -7.145219 -0.000000 0.000000
RightFoot -9.048643 -5.624666 21.236560
RightToeBase 16.460575 -0.000000 -0.000000
LeftUpLeg -43.010451 9.141780 -10.965246
LeftLeg 0.396511 -0.000000 -0.000000
LeftFoot -12.132019 10.377772 -4.989606
LeftToeBase 7.886124 -0.000000 -0.000000
Spine -49.242646 2.104906 -4.123678
RightShoulder -16.862964 15.101260 -41.198472
RightArm -0.710996 -13.559429 52.161439
RightForeArm 6.949248 -0.000000 -6.773400
RightHand 8.754217 -0.000000 6.385119
RightHandThumb1 -24.326973 -0.000000 -32.862282
LeftShoulder -12.490881 3.422907 38.729472
LeftArm 24.027247 -11.143379 -41.418604
LeftForeArm 12.949464 0.000000 -3.031861
LeftHand -19.777048 -0.000000 -1.664620
LeftHandThumb1 -26.253704 0.000000 33.147579
Head 8.840784 1.067068 2.250748
44
root -6.359374 32.716108 -4.707891 48.312821 14.710713 1.790031
RightUpLeg -38.100100 -14.776207 10.663530
RightLeg -7.168577 -0.000000 0.000000
RightFoot -9.126681 -5.889254 21.336987
RightToeBase 16.311429 -0.000000 -0.000000
LeftUpLeg -43.039702 9.231376 -11.029973
LeftLeg 0.340437 -0.000000 -0.000000
LeftFoot -11.748811 10.315520 -5.178045
LeftToeBase 8.070362 -0.000000 -0.000000
Spine -49.260502 2.137897 -4.117263
RightShoulder -16.820630 14.866056 -41.021748
RightArm -0.727332 -13.386116 52.495082
RightForeArm 6.903461 -0.000000 -6.808300
RightHand 8.731856 -0.000000 6.047261
RightHandThumb1 -24.326973 -0.000000 -32.862282
LeftShoulder -12.488791 3.480564 38.623098
LeftArm 24.299290 -10.925006 -41.524947
LeftForeArm 12.921286 -0.000000 -2.886340
LeftHand -19.747018 -0.000000 -1.570023
LeftHandThumb1 -26.253704 0.000000 33.147579
Head 8.892011 1.031386 2.246983
45
root -6.322008 32.714496 -4.681807 48.383657 15.180200 1.782622
RightUpLeg -38.039254 -14.899439 10.768200
RightLeg -7.213521 -0.000000 0.000000
RightFoot -9.177147 -6.099339 21.437172
RightToeBase 16.117475 -0.000000 -0.000000
LeftUpLeg -43.114923 9.306285 -11.112410
LeftLeg 0.296309 -0.000000 -0.000000
LeftFoot -11.272102 10.071985 -5.225503
LeftToeBase 8.576173 -0.000000 -0.000000
Spine -49.318689 2.192143 -4.154031
RightShoulder -16.786389 14.612543 -40.808783
RightArm -0.745839 -13.268114 52.727103
RightForeArm 7.144600 -0.000000 -6.789191
RightHand 8.656059 -0.000000 6.251506
RightHandThumb1 -24.326973 -0.000000 -32.862282
LeftShoulder -12.421051 3.485107 38.557568
LeftArm 24.530028 -10.645486 -41.637745
LeftForeArm 12.742433 -0.000000 -2.797389
LeftHand -19.535950 -0.000000 -1.620565
LeftHandThumb1 -26.253704 0.000000 33.147579
Head 8.924137 0.958154 2.246884
46
root -6.289816 32.712602 -4.658957 48.439978 15.655101 1.742118
RightUpLeg -37.934126 -14.915266 10.825379
RightLeg -7.302435 -0.000000 0.000000
RightFoot -9.211916 -6.417893 21.564155
RightToeBase 15.933343 -0.000000 -0.000000
LeftUpLeg -43.202674 9.346107 -11.119901
LeftLeg 0.235611 -0.000000 -0.000000
LeftFoot -10.733843 9.654142 -5.241029
LeftToeBase 8.862529 -0.000000 -0.000000
Spine -49.356057 2.232127 -4.146442
RightShoulder -16.738674 14.520593 -40.682680
RightArm -0.902808 -12.991282 53.074811
RightForeArm 7.054792 0.000000 -6.809651
RightHand 8.661960 -0.000000 6.120359
RightHandThumb1 -24.326973 -0.000000 -32.862282
LeftShoulder -12.370641 3.498099 38.497698
LeftArm 24.757829 -10.324250 -41.719956
LeftForeArm 12.572253 -0.000000 -2.767947
LeftHand -19.355212 -0.000000 -1.590011
LeftHandThumb1 -26.253704 0.000000 33.147579
Head 8.937228 0.900732 2.261879
47
root -6.251174 32.710999 -4.636378 48.512118 16.123959 1.726198
RightUpLeg -37.883640 -14.979320 10.876614
RightLeg -7.307097 -0.000000 0.000000
RightFoot -9.282559 -6.655016 21.693089
RightToeBase 15.738933 -0.000000 -0.000000
LeftUpLeg -43.269050 9.291226 -11.090890
LeftLeg 0.161864 -0.000000 -0.000000
LeftFoot -10.360655 9.305119 -5.195547
LeftToeBase 9.197151 -0.000000 -0.000000
Spine -49.405599 2.246444 -4.112247
RightShoulder -16.663983 14.476056 -40.546734
RightArm -1.070290 -13.008886 53.391073
RightForeArm 7.197724 -0.000000 -6.766280
RightHand 8.645400 0.000000 5.998158
RightHandThumb1 -24.326973 -0.000000 -32.862282
LeftShoulder -12.348462 3.545409 38.388336
LeftArm 24.940541 -10.195036 -41.849570
LeftForeArm 12.509418 0.000000 -2.594428
LeftHand -19.455487 -0.000000 -1.439425
LeftHandThumb1 -26.253704 0.000000 33.147579
Head 8.961721 0.905744 2.225808
